<svg style="position:absolute;top:0;left:0;width:100%;height:100%"><defs><mask id="a"><rect width="100%" height="100%" rx="0" ry="0" fill="#fff"/><rect x="16" y="10" width="397" height="262" id="b" rx="0" ry="0"/></mask></defs><rect width="100%" height="100%" mask="url(#a)" class="v2shadowMask" fill="rgba(0,0,0,.5)"/><use href="#b" fill="rgba(0,0,0,0)" stroke="#fff" stroke-width="2" class="v2cropSection" cursor="move"/><g cursor="nwse-resize"><path fill="rgba(0,0,0,0)" class="v2cropperHandle nw" d="M10 4h20v20H10z"/><path d="M15 4c-2.8 0-5 2.2-5 5v15h6V10h14V4H15z" fill="#fff" class="v2cropperHandle nw"/></g><g cursor="nesw-resize"><path fill="rgba(0,0,0,0)" class="v2cropperHandle ne" d="M419 4v20h-20V4z"/><path d="M419 9c0-2.8-2.2-5-5-5h-15v6h14v14h6V9z" fill="#fff" class="v2cropperHandle ne"/></g><g cursor="nesw-resize"><path fill="rgba(0,0,0,0)" class="v2cropperHandle sw" d="M10 278v-20h20v20z"/><path d="M10 273c0 2.8 2.2 5 5 5h15v-6H16v-14h-6v15z" fill="#fff" class="v2cropperHandle sw"/></g><g cursor="nwse-resize"><path fill="rgba(0,0,0,0)" class="v2cropperHandle se" d="M419 278h-20v-20h20z"/><path d="M414 278c2.8 0 5-2.2 5-5v-15h-6v14h-14v6h15z" fill="#fff" class="v2cropperHandle se"/></g><path fill="rgba(0,0,0,0)" class="v2cropperHandle n" cursor="ns-resize" d="M36 0h357v30H36z"/><path fill="rgba(0,0,0,0)" class="v2cropperHandle e" cursor="ew-resize" d="M393 30h30v222h-30z"/><path fill="rgba(0,0,0,0)" class="v2cropperHandle s" cursor="ns-resize" d="M36 262h357v30H36z"/><path fill="rgba(0,0,0,0)" d="M-4 30h30v222H-4z"/></svg>